<svg t="1713592157793" class="icon" viewBox="0 0 1024 1024" version="1.1" xmlns="http://www.w3.org/2000/svg" p-id="7481" width="200" height="200"><path d="M1024.074658 512.122653c0 188.138442-101.748341 353.239525-253.410963 441.549405l-8.319047-98.548708-88.949808-66.552374c94.709148-55.673621 158.701815-158.701815 158.701816-276.448323 0-79.990834-29.436627-152.942475-77.431128-208.616096l14.078387-120.306215 81.270687-55.673621c106.867755 94.069221 174.060056 231.01353 174.060056 384.595932zM512.005333 1024c-279.647957 0-506.821927-224.614263-511.94134-502.982367l91.509514 43.515014 100.468488-42.875087v4.479487c7.67912 170.220496 147.823062 305.884951 319.963338 305.88495 20.477654 0 40.315381-1.91978 60.153107-5.75934l-3.199633 3.83956 101.108414 76.151275 7.679121 90.229661a511.621377 511.621377 0 0 1-165.741009 27.516847z" fill="#FFF" p-id="7482"></path><path d="M766.781473 67.832228l-87.669955 60.793034-12.798533 103.028194a321.253856 321.253856 0 0 0-154.222329-39.675453c-141.423795 0-261.090083 91.573507-303.96517 218.278988l-114.546875 49.274354-85.110248-40.955307c44.154941-238.052723 252.771037-418.576038 503.622293-418.576038 85.750174 0 166.380936 21.181573 237.412797 58.29732l17.27802 9.534908z" fill="#FFF" p-id="7483"></path></svg>