<svg t="1719806507416" class="icon" viewBox="0 0 1185 1024" version="1.1" xmlns="http://www.w3.org/2000/svg" p-id="7644" width="200" height="200"><path d="M1066.145684 1000.879158H497.232842a53.894737 53.894737 0 1 1 0-107.789474h568.966737a7.653053 7.653053 0 0 0 7.706947-7.706947V115.496421A7.760842 7.760842 0 0 0 1066.145684 107.789474H296.259368a7.706947 7.706947 0 0 0-7.706947 7.706947 53.894737 53.894737 0 0 1-107.789474 0c0-63.703579 51.792842-115.496421 115.496421-115.496421h769.940211c63.703579 0 115.496421 51.792842 115.496421 115.496421v769.940211a115.658105 115.658105 0 0 1-115.550316 115.442526z" fill="#1296db" opacity=".5" p-id="7645"></path><path d="M342.501053 1000.879158a53.840842 53.840842 0 0 1-53.894737-53.894737v-182.595368H53.894737a53.894737 53.894737 0 0 1-53.894737-53.894737V500.466526a53.894737 53.894737 0 0 1 53.894737-53.894737h234.711579V269.581474a54.002526 54.002526 0 0 1 91.998316-38.103579l338.728421 338.728421a53.733053 53.733053 0 0 1 0 76.207158l-338.728421 338.674526a53.679158 53.679158 0 0 1-38.103579 15.791158zM107.789474 656.599579h234.711579a53.894737 53.894737 0 0 1 53.894736 53.894737v106.442105l208.626527-208.572632-208.626527-208.626526v100.729263a53.894737 53.894737 0 0 1-53.894736 53.894737H107.789474v102.238316zM871.370105 798.612211a53.894737 53.894737 0 0 1-53.894737-53.894737V432.774737a53.894737 53.894737 0 1 1 107.789474 0v311.996631a53.840842 53.840842 0 0 1-53.894737 53.840843z" fill="#1296db" p-id="7646"></path></svg>