<svg t="1699927514727" class="icon" viewBox="0 0 1024 1024" version="1.1" xmlns="http://www.w3.org/2000/svg" p-id="4825" width="200" height="200"><path d="M825.472 39.424a159.104 159.104 0 1 1-153.664 200.704h-3.072c-63.616 0-115.136 51.584-115.136 115.136v313.408c0 63.616 51.52 115.2 115.136 115.2h3.008a159.232 159.232 0 1 1 0 83.2h-3.008a198.336 198.336 0 0 1-198.336-198.4V553.6H352.192a159.232 159.232 0 1 1 0-83.2H470.4V355.2a198.336 198.336 0 0 1 198.336-198.336h3.072a159.232 159.232 0 0 1 153.6-117.504z m0 710.08c-41.728 0-75.52 33.472-75.968 75.008v1.792a75.904 75.904 0 1 0 75.904-76.8zM198.464 436.032A75.904 75.904 0 1 0 274.56 513.088v-2.24a75.904 75.904 0 0 0-75.968-74.816z m626.944-313.408a75.904 75.904 0 1 0 0 151.872 75.904 75.904 0 0 0 0-151.872z" p-id="4826"></path></svg>