<svg t="1718604731692" class="icon" viewBox="0 0 1024 1024" version="1.1" xmlns="http://www.w3.org/2000/svg" p-id="3200" width="200" height="200"><path d="M444.45131 397.806345c0-22.775172 18.432-41.207172 41.207173-41.207173h120.055172a26.376828 26.376828 0 1 1 0 52.788966h-102.611862v82.096552h79.165793a26.376828 26.376828 0 1 1 0 52.788965h-79.165793v93.819586a29.307586 29.307586 0 0 1-58.650483 0v-240.286896z" p-id="3201" fill="#ffffff"></path><path d="M368.569379 199.079724v-0.176552c-110.662621 0-237.285517 60.38069-234.707862 223.302621h0.105931v150.669241a30.896552 30.896552 0 0 0 61.793104 0v-150.669241h0.03531c0-76.270345 45.479724-161.862621 175.668966-161.862621v-0.07062h5.367172c30.543448 0 60.769103 0.600276 90.429793 1.200551 28.495448 0.600276 56.496552 1.165241 83.579586 1.165242H794.482759l-69.632 69.420138a27.895172 27.895172 0 0 0 0 40.500965c5.790897 5.790897 17.408 5.790897 23.198896 5.790897 11.617103 0 17.408-5.790897 23.198897-11.581793l110.203586-115.712a27.895172 27.895172 0 0 0 0-40.500966l-110.168276-115.676689a28.071724 28.071724 0 0 0-40.606896 0 27.895172 27.895172 0 0 0 0 40.500965l57.979586 63.629241H376.832c-2.789517 0-5.543724 0-8.262621 0.070621zM655.430621 824.920276v0.176552c110.662621 0 237.285517-60.38069 234.672551-223.302621h-0.07062v-150.669241a30.896552 30.896552 0 1 0-61.793104 0v150.669241h-0.03531c0 76.270345-45.479724 161.862621-175.668966 161.862621v0.07062h-5.402482c-30.508138 0-60.733793-0.600276-90.394483-1.200551-28.530759-0.600276-56.496552-1.165241-83.579586-1.165242H229.517241l69.632-69.420138a27.895172 27.895172 0 0 0 0-40.500965c-5.826207-5.790897-17.408-5.790897-23.198896-5.790897-11.617103 0-17.408 5.790897-23.198897 11.581793L142.547862 772.943448a27.895172 27.895172 0 0 0 0 40.500966l110.168276 115.712a28.071724 28.071724 0 0 0 40.606896 0 27.895172 27.895172 0 0 0 0-40.500966l-57.979586-63.664551h411.789242c2.824828 0 5.543724 0 8.297931-0.070621z" p-id="3202" fill="#ffffff"></path></svg>