<svg t="1714008668712" class="icon" viewBox="0 0 1024 1024" version="1.1" xmlns="http://www.w3.org/2000/svg" p-id="2597" width="200" height="200"><path d="M713.364792 407.637024a101.909256 101.909256 0 1 0-101.909256-101.909256 101.909256 101.909256 0 0 0 101.909256 101.909256z" fill="#ffffff" p-id="2598"></path><path d="M973.029576 0H50.954628a50.954628 50.954628 0 0 0-50.954628 50.954628v922.074948a50.954628 50.954628 0 0 0 50.954628 50.954628h922.074948a50.954628 50.954628 0 0 0 50.954628-50.954628V50.954628a50.954628 50.954628 0 0 0-50.954628-50.954628zM66.241016 957.743188V623.1751l148.889423-136.30363a17.83412 17.83412 0 0 1 24.66204 0.509547L491.71216 739.351652l-218.44249 218.44249z m891.502172 0H366.924276l356.427623-356.376668a17.83412 17.83412 0 0 1 25.171586 0l209.219703 209.219702z m0-240.862527l-162.341445-162.341445a84.075136 84.075136 0 0 0-118.928102 0L538.590418 692.473394 286.619782 440.502759a84.075136 84.075136 0 0 0-116.227506-2.547731L66.241016 533.342091V66.241016h891.502172z" fill="#ffffff" p-id="2599"></path></svg>