<svg t="1726017901807" class="icon" viewBox="0 0 1024 1024" version="1.1" xmlns="http://www.w3.org/2000/svg" p-id="7387" width="200" height="200"><path d="M342.550215 398.787542c30.875195 0 55.919591-25.001417 55.919591-55.832609 0-30.831192-25.045419-55.832609-55.919591-55.832609-30.874171 0-55.919591 25.001417-55.919591 55.832609C286.630624 373.786125 311.67502 398.787542 342.550215 398.787542z" p-id="7388" fill="#ffffff"></path><path d="M511.882831 67.001997l-1.572822 1.571798 0-4.78191L152.408667 63.791885c-49.41341 0-89.458451 39.630602-89.458451 89.305979l0 357.354897 5.480828 0-3.013637 2.991124 445.394023 444.717617 56.968479 0 389.538901-388.9505 0-57.44841L511.882831 67.001997zM539.001469 815.250652 178.174494 454.969099l0.348947-0.348947-3.734044 0L174.789397 220.306568c0-24.78243 20.132526-44.849464 44.937468-44.849464l234.662531 0 0 1.920746 0.436952-0.436952 361.742834 361.175923L539.001469 815.250652z" p-id="7389" fill="#ffffff"></path></svg>