<svg t="1725959252081" class="icon" viewBox="0 0 1024 1024" version="1.1" xmlns="http://www.w3.org/2000/svg" p-id="2353" width="200" height="200"><path d="M172.617143 953.197714c-35.254857 22.454857-11.483429 76.873143 28.891428 66.267429 16.091429-4.242286 43.008-13.165714 77.092572-27.428572a794.331429 794.331429 0 0 0 164.790857-93.110857c141.531429-104.813714 226.889143-246.930286 228.205714-429.348571l152.429715-8.045714a36.571429 36.571429 0 0 0 24.137142-62.171429L518.875429 63.853714a36.571429 36.571429 0 0 0-54.272 2.340572L159.232 434.980571a36.571429 36.571429 0 0 0 30.061714 59.830858l173.714286-9.069715c9.508571 253.074286-30.573714 365.933714-190.390857 467.456zM434.395429 445.44a36.571429 36.571429 0 0 0-38.473143-34.596571l-127.268572 6.582857L495.177143 144.091429l244.077714 248.685714-106.788571 5.632a36.571429 36.571429 0 0 0-34.669715 38.473143c9.142857 173.348571-65.389714 305.225143-197.851428 403.382857-8.996571 6.582857-18.066286 13.019429-27.355429 19.163428 58.514286-98.669714 71.753143-225.28 61.878857-413.988571z" p-id="2354" fill="#ffffff"></path></svg>