<svg t="1726017744180" class="icon" viewBox="0 0 1024 1024" version="1.1" xmlns="http://www.w3.org/2000/svg" p-id="5276" width="200" height="200"><path d="M260.352 938.688c-96.64 0-175.04-78.336-175.04-173.376a176 176 0 0 1 175.04-174.976 174.976 174.976 0 0 1 174.976 174.976c0 96.64-80 173.376-174.976 173.376z m0-248.32c-41.664 0-75.008 33.28-75.008 74.944s33.28 75.008 75.008 75.008c41.6 0 75.008-33.28 75.008-75.008 0-41.6-35.008-74.944-75.008-74.944zM765.312 433.664a174.976 174.976 0 0 1-174.976-174.976 173.568 173.568 0 0 1 174.976-173.376 174.976 174.976 0 0 1 175.04 175.04c0 96.64-80 173.312-175.04 173.312z m0-248.32c-41.6 0-74.944 33.28-74.944 75.008 0 41.6 33.28 75.008 74.944 75.008s75.008-33.344 75.008-75.008c0-41.664-35.008-75.008-75.008-75.008z" fill="#ffffff" p-id="5277"></path><path d="M260.352 690.368a49.088 49.088 0 0 1-49.984-50.048v-504.96c0-28.352 21.632-50.048 49.92-50.048 28.352 0 50.048 21.696 50.048 50.048v504.96a50.112 50.112 0 0 1-49.984 49.984zM383.68 815.36c-26.688 0-49.984-21.696-49.984-48.32 0-28.352 21.632-50.048 48.32-51.712 13.312 0 331.648-13.312 331.648-331.648 0-28.352 21.696-49.984 49.984-49.984 28.352 0 50.048 21.632 50.048 49.92 1.664 331.712-280 426.752-430.08 431.744 0 0 1.728 0 0 0z" fill="#ffffff" p-id="5278"></path></svg>