<svg t="1726130194704" class="icon" viewBox="0 0 1024 1024" version="1.1" xmlns="http://www.w3.org/2000/svg" p-id="11530" width="200" height="200"><path d="M200.704 331.114667a89.514667 89.514667 0 0 1 58.112 21.76c8.106667 7.125333 14.72 16.234667 19.669333 27.221333 5.013333 11.008 7.509333 23.658667 7.509334 37.973333v18.005334H235.093333v-17.984c0-12.288-3.413333-21.354667-10.197333-27.221334a36.010667 36.010667 0 0 0-24.213333-8.768c-9.322667 0-17.365333 2.922667-24.213334 8.768-6.762667 5.781333-10.197333 14.890667-10.197333 27.221334v187.861333c0 12.288 3.434667 21.397333 10.197333 27.2 6.826667 5.866667 14.890667 8.746667 24.213334 8.746667 9.322667 0 17.365333-2.88 24.213333-8.746667 6.762667-5.802667 10.197333-14.912 10.197333-27.2v-70.442667H194.709333l0.149334-47.061333 91.136 0.149333v117.354667c0 14.634667-2.496 27.349333-7.509334 38.208a80.213333 80.213333 0 0 1-19.669333 26.965333 89.514667 89.514667 0 0 1-58.112 21.76 90.026667 90.026667 0 0 1-30.677333-5.525333 84.949333 84.949333 0 0 1-27.392-16.234667 78.570667 78.570667 0 0 1-19.690667-26.986666c-4.970667-10.837333-7.466667-23.594667-7.466667-38.229334v-70.421333h-75.52a23.68 23.68 0 0 1-16.64-6.890667 23.658667 23.658667 0 0 1-6.826666-16.64v-75.946666H0l39.722667-56.042667 39.637333 56.042667h-16v52.501333h52.096v-70.421333c0-14.336 2.496-26.986667 7.466667-37.994667 4.970667-11.008 11.52-20.096 19.712-27.221333a84.309333 84.309333 0 0 1 27.392-16.234667 90.026667 90.026667 0 0 1 30.677333-5.525333z m625.344 0c11.648 0 22.442667 2.090667 32.469333 6.250666 9.941333 4.138667 18.602667 9.984 25.92 17.493334 7.317333 7.530667 13.056 16.490667 17.194667 26.986666 4.16 10.496 6.250667 21.909333 6.250667 34.218667v20.010667h-50.901334v-17.002667a41.173333 41.173333 0 0 0-8.490666-25.962667c-5.632-7.317333-13.269333-11.008-22.890667-11.008-12.608 0-21.034667 3.946667-25.194667 11.776-4.181333 7.786667-6.229333 17.706667-6.229333 29.696v181.909334c0 10.304 2.282667 18.944 6.741333 25.962666 4.48 7.018667 12.586667 10.496 24.170667 10.496 3.328 0 6.912-0.64 10.709333-1.749333 3.84-1.173333 7.402667-3.157333 10.453334-5.76 3.157333-2.666667 5.76-6.314667 7.765333-11.008 1.984-4.672 2.965333-10.453333 2.965333-17.472v-17.514667h50.901334v21.909334a82.944 82.944 0 0 1-49.152 75.712c-9.813333 4.522667-20.330667 6.741333-31.637334 6.741333-9.685333 0-19.477333-1.301333-29.44-3.968a71.232 71.232 0 0 1-26.944-13.76 73.514667 73.514667 0 0 1-19.669333-25.706667c-5.248-10.645333-7.765333-24.170667-7.765333-40.490666v-195.84c0-11.669333 2.005333-22.485333 5.973333-32.469334 3.968-10.026667 9.6-18.645333 16.917333-25.962666a78.421333 78.421333 0 0 1 26.24-17.237334c10.112-4.16 21.312-6.250667 33.642667-6.250666z m-413.418667 2.986666c59.84 0 89.792 34.837333 89.792 104.469334 0 20.650667-3.285333 38.4-9.728 53.205333-6.485333 14.805333-17.877333 26.730667-34.154666 35.733333l54.848 162.368h-53.824l-48.213334-154.538666h-29.610666v154.538666h-50.88V334.122667h81.770666z m206.954667 0c14.016 0 26.304 1.877333 36.949333 5.546667a70.186667 70.186667 0 0 1 28.885334 19.477333c8.64 9.301333 14.634667 20.202667 18.005333 32.746667 3.328 12.501333 4.992 29.397333 4.992 50.709333 0 15.658667-1.28 26.858667-3.093333 37.994667-1.834667 11.2-7.765333 30.592-30.912 43.733333-14.549333 8.234667-35.328 11.242667-54.314667 11.242667h-25.877333v154.325333h-50.88V334.122667h76.245333z m364.48 153.941334a23.445333 23.445333 0 0 1 23.445333 23.509333v75.946667H1024l-39.68 56.042666-39.68-56.064h15.936v-52.373333h-103.530667v-47.061333h127.018667z m-575.936-105.941334h-26.432v106.410667h28.928c8.96 0 16.170667-1.237333 21.44-3.626667 5.290667-2.346667 9.429333-5.845333 12.202667-10.304 2.858667-4.458667 4.8-9.984 5.781333-16.533333 1.024-6.528 1.536-14.144 1.472-22.741333 0-8.618667-0.512-16.213333-1.493333-22.741334a39.893333 39.893333 0 0 0-6.272-16.789333 27.882667 27.882667 0 0 0-13.205334-10.304c-5.653333-2.24-13.077333-3.370667-22.4-3.370667z m212.48-0.042666h-26.432v106.432h24.426667c10.325333 0 18.282667-1.322667 23.914666-3.946667 5.674667-2.645333 9.834667-6.229333 12.522667-10.794667 2.581333-4.544 4.202667-10.026667 4.693333-16.469333a290.56 290.56 0 0 0 0.042667-42.496 43.989333 43.989333 0 0 0-4.48-17.109333 26.858667 26.858667 0 0 0-11.733333-11.413334c-5.333333-2.773333-13.034667-4.202667-22.954667-4.202666z" fill="#ffffff" p-id="11531"></path></svg>