<svg t="1704271589604" class="icon" viewBox="0 0 1024 1024" version="1.1" xmlns="http://www.w3.org/2000/svg" p-id="2478" width="200" height="200"><path d="M944.192 448a16 16 0 0 1 16 16v240.064a64 64 0 0 1-64 64H242.048l70.784 70.72a16 16 0 0 1 2.56 19.2l-2.56 3.456-22.656 22.656a16 16 0 0 1-22.592 0l-135.808-135.808a16 16 0 0 1 0-22.592l135.808-135.808a16 16 0 0 1 22.592 0l22.656 22.656a16 16 0 0 1 0 22.592L243.84 704l652.352 0.064V464a16 16 0 0 1 16-16h32z m-187.392-307.968l135.808 135.744a16 16 0 0 1 0 22.656l-135.808 135.68a16 16 0 0 1-22.592 0l-22.656-22.592a16 16 0 0 1 0-22.592l68.928-68.992L128.192 320v240.064a16 16 0 0 1-16 16h-32a16 16 0 0 1-16-16V320a64 64 0 0 1 64-64h654.08l-70.72-70.72a16 16 0 0 1-2.56-19.2l2.56-3.456 22.656-22.592a16 16 0 0 1 22.592 0z" fill="#ffffff" p-id="2479"></path></svg>