<svg t="1703776129211" class="icon" viewBox="0 0 1024 1024" version="1.1" xmlns="http://www.w3.org/2000/svg" p-id="65492" width="200" height="200"><path d="M547.285333 86.698667a37.12 37.12 0 0 1 11.648 4.821333c2.730667 1.706667 5.077333 3.498667 9.301334 7.509333a32.170667 32.170667 0 0 1 15.232 15.018667l241.066666 241.066667c6.613333 3.2 11.946667 8.618667 15.104 15.274666 4.010667 4.309333 5.802667 6.656 7.509334 9.386667a37.12 37.12 0 0 1 4.821333 11.648c0.810667 3.498667 1.237333 6.741333 1.322667 14.08L853.333333 829.312c0 38.058667-3.968 51.84-11.392 65.706667-7.424 13.952-18.346667 24.874667-32.256 32.298666-13.909333 7.424-27.733333 11.392-65.706666 11.392H280.021333c-38.058667 0-51.84-3.968-65.706666-11.392a77.525333 77.525333 0 0 1-32.298667-32.256c-6.826667-12.842667-10.752-25.6-11.306667-57.386666L170.666667 194.730667c0-38.058667 3.968-51.84 11.392-65.706667 7.424-13.952 18.346667-24.874667 32.256-32.298667 12.842667-6.826667 25.6-10.752 57.386666-11.306666L528.213333 85.333333c11.050667 0 14.848 0.426667 19.072 1.365334zM522.666667 384V149.290667L280.064 149.333333c-25.002667 0-30.293333 1.024-35.541333 3.84a13.610667 13.610667 0 0 0-6.016 5.973334l-1.493334 3.413333c-1.493333 4.266667-2.176 10.538667-2.304 25.813333v647.253334l0.256 11.050666c0.426667 10.666667 1.536 14.421333 3.541334 18.133334a13.610667 13.610667 0 0 0 5.973333 6.016l2.986667 1.365333c4.864 1.792 12.117333 2.474667 32.597333 2.474667h463.872c25.002667 0 30.293333-1.024 35.541333-3.84a13.610667 13.610667 0 0 0 6.016-5.973334l1.365334-2.986666c1.792-4.864 2.474667-12.117333 2.474666-32.597334V416H554.666667a32 32 0 0 1-32-32z m-74.666667 138.666667a32 32 0 0 1 32 32v140.714666c0 56.917333-42.026667 104.618667-96 104.618667-53.973333 0-96-47.701333-96-104.618667a32 32 0 0 1 63.701333-4.352l0.298667 4.352c0 23.253333 15.274667 40.618667 32 40.618667s32-17.365333 32-40.618667V554.666667a32 32 0 0 1 32-32z m192 0c51.84 0 96 36.778667 96 85.333333a32 32 0 1 1-64 0c0-10.368-13.184-21.333333-32-21.333333s-32 10.965333-32 21.333333 13.184 21.333333 32 21.333333c51.84 0 96 36.778667 96 85.333334s-44.16 85.333333-96 85.333333-96-36.778667-96-85.333333a32 32 0 1 1 64 0c0 10.368 13.184 21.333333 32 21.333333s32-10.965333 32-21.333333c0-9.386667-10.88-19.328-27.008-21.077334l-11.690667-0.426666c-48.896-3.029333-89.301333-38.741333-89.301333-85.162667 0-48.554667 44.16-85.333333 96-85.333333z m-53.333333-314.837334V352h144.128L586.666667 207.829333z" p-id="65493" fill="#ffffff"></path></svg>