<svg t="1708412756130" class="icon" viewBox="0 0 1026 1024" version="1.1" xmlns="http://www.w3.org/2000/svg" p-id="3275" width="200" height="200"><path d="M857.445623 5.611662c-95.242268 25.420272-129.282859 142.808565-62.408083 215.216857 14.586546 15.794946 39.801429 31.001644 61.411053 37.037663 15.302413 4.275264 57.014152 3.704963 70.789115-0.965125 44.660953-15.144883 77.754365-49.658066 89.136458-92.961064 4.149638-15.78697 4.542468-46.507452 0.791641-61.815847-11.463849-46.774656-48.676989-84.472352-95.316048-96.558347C906.561304 1.605596 872.36717 1.627531 857.445623 5.611662M396.817858 134.126808c-102.014094 12.552605-192.55437 55.843639-263.780185 126.126263-56.768882 56.015128-97.555377 127.155198-117.988505 205.78695-10.357145 39.857263-11.97034 54.587381-12.016203 109.673277-0.035893 45.041818 0.538396 55.038039 4.382943 76.1651 24.853959 136.561177 106.397037 249.745993 227.229072 315.402399 66.438077 36.100455 133.986846 52.952252 212.024368 52.892431 43.02383-0.031905 66.878764-2.86347 107.286388-12.730077 156.431981-38.2002 282.673899-164.268635 322.497263-322.056576 3.597283-14.257526 7.97225-36.997782 9.719046-50.533458 3.643147-28.209961 4.20946-84.761491 1.100721-110.040184C862.979138 327.21758 715.614146 172.137572 519.452522 137.736056c-25.428248-4.460711-98.297167-6.604325-122.634664-3.609248m255.562665 130.371616c19.32842 3.764785 29.482171 7.553498 44.264134 16.51879 76.57787 46.441648 84.709645 154.098931 15.92456 210.835908-25.206907 20.790065-50.790692 29.737411-84.440447 29.52604-34.108389-0.21137-61.610459-11.188668-86.602008-34.567023-26.359474-24.658541-39.02574-52.35204-40.511314-88.570144-1.08078-26.345515 2.199448-42.794513 12.921506-64.806937 9.699106-19.912679 35.239021-45.865365 55.367058-56.260397 26.96168-13.926512 54.826668-18.177847 83.076511-12.676237M181.459422 637.529145V764.151929h145.56635v33.899013H141.578231v-142.242252c0-78.234934 0.598218-142.842464 1.330037-143.572291 0.729826-0.73182 9.703094-1.330038 19.940596-1.330038H181.459422v126.622784m503.854989-52.685048c19.978483 2.75579 37.982847 11.196645 47.432695 22.235758 12.233556 14.293419 13.031179 20.074198 13.03118 94.478544 0 75.098278-0.360925 73.333535 14.732112 72.23082l8.199573-0.600212 0.588247 12.205639c0.584259 12.123882 0.546372 12.217603-5.780778 14.425027-9.982262 3.47764-26.889894 2.721891-35.266938-1.579295-7.728975-3.968179-14.37717-13.033173-14.37717-19.607588 0-6.857571-2.197454-6.384979-13.641361 2.93725-18.377253 14.967411-33.912971 21.174919-55.365065 22.116114-32.714542 1.435723-54.354076-8.849636-66.091111-31.41242-5.679082-10.917476-6.480694-14.365205-6.480693-27.880941 0-21.222776 4.243359-32.60088 16.863761-45.223278 14.082049-14.082049 26.064353-18.177847 66.886741-22.873857 51.155605-5.882476 54.906431-7.788797 54.635239-27.751328-0.197412-14.650356-5.092828-23.352432-16.849804-29.958751-7.896476-4.436783-11.170722-4.985149-29.809196-4.985149-17.81094 0-22.173943 0.660034-29.210979 4.424818-9.208567 4.925327-15.158841 13.26249-18.540766 25.984591l-2.253288 8.474753h-32.307753l1.180483-9.968304c3.651123-30.816197 27.204955-52.645167 62.188736-57.63231 17.172841-2.446711 22.740256-2.452693 40.236135-0.039881M396.817858 668.437069c0.969113 76.5679 1.120661 78.996665 5.421848 87.038707 7.076917 13.234573 16.197746 17.649421 36.453403 17.649421 14.933512 0 18.068174-0.65804 26.353492-5.527533 11.128847-6.54251 18.20377-15.260538 24.144073-29.749375 4.087822-9.97628 4.396901-14.556635 5.336104-79.381518l0.997029-68.795056h33.899013l0.516462 104.189614 0.516461 104.189613H496.520837V769.813064l-9.788838 10.710094c-5.659141 6.191555-14.700207 13.19868-21.436141 16.610517-10.897536 5.523545-13.120912 5.902416-34.578987 5.902416-20.973519 0-23.884846-0.468604-34.084461-5.477682-13.97437-6.863553-25.039406-17.485909-30.495153-29.278777-4.041959-8.737969-4.239371-12.508736-4.817648-91.654954-0.331014-45.396761-0.119644-83.794372 0.46661-85.32581 0.823547-2.143614 4.879464-2.652099 17.551713-2.207424l16.482896 0.580271 0.99703 78.765354m305.471982 27.322604c-3.629188 1.481586-18.435081 4.476664-32.901983 6.652183-41.915133 6.305216-54.124759 11.485783-59.329255 25.175002-5.391937 14.183746 1.048875 35.821286 12.428973 41.753614 25.713398 13.404069 70.735276-0.287145 83.549103-25.404319 3.381925-6.62626 3.894398-11.029144 3.415824-29.334611l-0.564319-21.539831-6.598343 2.697962" p-id="3276" fill="#ffffff"></path></svg>