<svg t="1719279876804" class="icon" viewBox="0 0 1024 1024" version="1.1" xmlns="http://www.w3.org/2000/svg" p-id="6179" width="200" height="200"><path d="M428.9 844.3H164c-33 0-60-27-60-60v-473h735v111.9c0 11.1 9 20 20 20s20-9 20-20v-249c0-49.5-40.5-90-90-90H154c-49.5 0-90 40.5-90 90v620c0 49.5 40.5 90 90 90h274.9c11 0 20-9 20-20s-8.9-19.9-20-19.9zM164 124.2h615c33 0 60 27 60 60v87H104v-87c0-33 27-60 60-60z" fill="#ffffff" p-id="6180"></path><path d="M635 403.2c0-11-9-20-20-20H334.7c-11 0-20 9-20 20s9 20 20 20H615c11 0 20-9 20-20zM454.9 513H334.7c-11 0-20 9-20 20s9 20 20 20h120.1c11 0 20-9 20-20 0.1-11-8.9-20-19.9-20zM454.9 640.8H334.7c-11 0-20 9-20 20s9 20 20 20h120.1c11 0 20-9 20-20 0.1-10.9-8.9-20-19.9-20zM237.9 402.8c0-10.8-8.8-19.6-19.6-19.6s-19.6 8.8-19.6 19.6v0.9c0 10.8 8.8 19.6 19.6 19.6s19.6-8.8 19.6-19.6v-0.9zM237.9 532.5c0-10.8-8.8-19.6-19.6-19.6s-19.6 8.8-19.6 19.6v0.9c0 10.8 8.8 19.6 19.6 19.6s19.6-8.8 19.6-19.6v-0.9zM218.4 640.8c-10.8 0-19.6 8.8-19.6 19.6v0.9c0 10.8 8.8 19.6 19.6 19.6s19.6-8.8 19.6-19.6v-0.9c-0.1-10.7-8.9-19.6-19.6-19.6zM532.2 652.2c-0.7 2.1-1.3 4.1-1.9 6.2-0.1 0.6-0.1 1.3-0.1 1.9 0 9.5 7.7 17.2 17.2 17.2 7.1 0 13.2-4.3 15.8-10.5 0.3-1.1 0.7-2.1 1-3.2 24-74.6 93.9-128.6 176.5-128.6 59.9 0 113.2 28.4 147.1 72.5l4.2 5.7-8.8 5.7-27.9 18 52 19.3 36.3 13.5 3.2-45.6 3.4-48.3-24.7 16-4.9 3.2c-1.4-1.9-2.7-3.9-4.2-5.8-40-53.4-103.8-88-175.7-88-97.3-0.2-179.8 63.1-208.5 150.8zM959.9 715.7v-0.1c0-1.1-0.1-2.3-0.1-3.4-1.1-8.4-8.3-14.8-17-14.8s-15.9 6.5-17 14.9c0.1 1.8 0.1 3.6 0.2 5.5v2.7c0 102.4-83 185.4-185.4 185.4-73.7 0-137.3-43-167.2-105.2l6.4-3.4 29.8-15.8-42.1-19.9-46.9-22.1-4.9 31.3-10.3 65.9 27.9-14.8 10.1-5.3c35.6 73 110.5 123.2 197.2 123.2 121.1 0 219.3-98.2 219.3-219.3 0.1-1.6 0.1-3.2 0-4.8z" fill="#ffffff" p-id="6181"></path></svg>