<svg t="1703774851809" class="icon" viewBox="0 0 1024 1024" version="1.1" xmlns="http://www.w3.org/2000/svg" p-id="39842" width="200" height="200"><path d="M777.28 626.24a181.76 181.76 0 0 0-96 27.2 79.68 79.68 0 0 1-80.96 1.6L470.4 582.4a80 80 0 0 1-40.64-70.4 79.68 79.68 0 0 1 40.64-70.4l129.92-72.96a80 80 0 0 1 80.96 1.6 182.72 182.72 0 1 0-87.04-155.84 79.68 79.68 0 0 1-40.64 70.72l-125.44 70.4a88.64 88.64 0 0 1-88.32 0 182.72 182.72 0 1 0 2.88 313.28 79.68 79.68 0 0 1 80.96-1.6l129.92 72.96a80 80 0 0 1 40.64 69.76 182.72 182.72 0 1 0 182.72-182.72z" fill="#ffffff" p-id="39843"></path></svg>