<svg t="1703775438427" class="icon" viewBox="0 0 1024 1024" version="1.1" xmlns="http://www.w3.org/2000/svg" p-id="57255" width="200" height="200"><path d="M879.848729 412.397483H400.013998c-14.052437 0-15.128948 1.13431-15.128947 15.367369v310.338498c0 14.117461 1.553354 15.670815 15.967036 15.670815h479.89253c14.774927 0 16.205458-1.495555 16.205458-16.624502V428.964186c0-15.902012-0.657466-16.566703-17.101346-16.566703z m0.238421 313.871475c0 8.25084-1.8568 10.642283-10.468885 10.642283-152.510485-0.238422-305.013744-0.238422-457.466429 0-8.669884 0-10.403861-2.629865-10.346062-10.707307 0.238422-95.571021 0.296221-191.264866 0-286.835887-0.057799-7.954619 1.791776-10.10764 9.869218-10.10764 76.793498 0.361245 153.586995 0.238422 230.315469 0.238422 75.716987 0 151.433974 0.180623 227.150961-0.238422 9.088928-0.057799 11.003528 2.449242 10.945728 11.18415-0.303446 95.282025-0.303446 190.549601 0 285.824401z" p-id="57256" fill="#ffffff"></path><path d="M957.234668 413.062174c0.296221-30.61914-24.579121-60.103971-59.569328-59.446505-73.917986 1.257133-147.843197 0.296221-221.826207 0.534643-7.354952 0.057799-9.565772-1.676178-9.507973-9.32735 0.419044-34.809584 0.238422-69.676968 0.238422-104.544352-0.122823-33.61025-23.14859-56.939463-56.81664-56.939463-53.07414-0.036125-106.141055-0.01445-159.200745-0.007225-6.068919-11.21305-17.93221-18.835323-31.580052-18.835323-19.81791 0-35.886095 16.068185-35.886095 35.886095 0 19.81791 16.068185 35.886095 35.886095 35.886095 13.626168 0 25.475009-7.593373 31.551152-18.777524h157.315046c21.472413 0 24.579121 3.048909 24.579121 24.701945 0 33.790873-0.361245 67.581746 0.180623 101.249795 0.180623 8.850507-2.810487 11.24195-10.707307 10.165439-2.095222-0.361245-4.248243-0.361245-6.33624 0-6.935907 1.018711-9.031129-1.553354-8.97333-8.612085 0.476844-29.188609 0.238422-58.369994 0.180622-87.558603 0-12.137838-2.095222-14.413682-14.117461-14.413682H109.471735c-12.975926 0-14.774927 1.8568-14.774927 14.948325v311.472807c0 13.871814 1.13431 14.948325 15.432394 14.948325 68.297011 0.122823 136.601247 0.361245 204.78266-0.238421 11.660994-0.180623 9.984816 5.801597 10.403861 12.918127 0.419044 7.716197-0.238422 11.96444-10.288263 11.899416-74.756075-0.476844-149.338752-0.296221-224.094827-0.296221-17.939435-0.057799-21.826433-4.009821-21.826433-22.007056V240.040189c0-18.777524 3.7714-22.548923 22.4261-22.548924h164.315977c6.076144 11.18415 17.924985 18.777524 31.551153 18.777524 19.81791 0 35.886095-16.068185 35.886095-35.886095 0-19.81791-16.068185-35.886095-35.886095-35.886095-13.647842 0-25.511134 7.622273-31.580053 18.835323-54.425197-0.007225-108.857619-0.036125-163.268365 0.007225-34.506138 0-57.596929 23.025767-57.59693 57.293484 0 114.471368 0.838089 228.942737-0.476843 343.414105-0.361245 30.026698 24.160077 59.865549 59.74995 59.150284 71.049699-1.257133 142.164423-0.361245 213.271922-0.361245 17.881636 0 17.462591 0 17.881636 17.939435 0.122823 7.773996-2.514266 9.32735-9.630796 9.153952-20.995569-0.419044-42.041713-0.180623-62.979483-0.122823-13.575593 0.057799-21.349589 6.401264-21.472413 16.985747-0.180623 10.765106 7.477775 17.108571 20.930545 17.166371 21.414613 0.057799 42.764203 0.180623 64.055993-0.180623 6.697485-0.057799 9.392374 1.437756 9.03113 8.792708-0.599667 14.23306 1.018711 28.531143-0.361246 42.641379-2.868287 29.246409 23.625434 59.150284 58.846838 58.731239 85.644004-1.13431 171.345808-0.361245 257.047611-0.361245 86.35927 0 172.725764 0 259.085034-0.057799 33.61025 0 56.693816-23.444811 56.693816-57.055062 0.130048-114.471368-0.708041-228.942737 0.606892-343.40688z m-632.634211-2.218046c1.972399 48.984845 0.419044 98.085288 0.715266 147.127932 0.057799 7.354952-1.676178 9.630796-9.327351 9.630796-65.00968-0.361245-130.07716-0.361245-195.151864 0-7.773996 0-9.211752-2.449242-9.211751-9.688595 0.238422-95.990066 0.296221-191.980132-0.0578-288.027997 0-8.135241 2.21082-9.984816 10.10764-9.927017 76.432252 0.296221 152.864505 0.180623 229.361782 0.180623 76.071007 0 152.149239 0.122823 228.220246-0.180623 8.135241-0.057799 10.945729 1.733977 10.707307 10.403861-0.657466 24.521322-0.657466 49.100443 0 73.621765 0.238422 8.25084-2.449242 9.811419-10.165439 9.688595-65.724946-0.238422-131.514915 0.657466-197.304885-0.476843-32.056896-0.541868-59.092484 28.76234-57.893151 57.647503z m598.012474 9.269551v335.936331c0 19.854034-3.525753 23.321988-23.806056 23.321988-86.005249 0.057799-172.003274 0-258.124122 0-85.644004 0-171.288008 0.057799-256.932012 0-21.407389 0-24.463523-3.106708-24.463523-24.759744V413.358395c0-4.248243-0.057799-8.612085 0.715266-12.795304 1.372732-6.935907 5.505376-11.364773 13.214348-11.306974 3.525753 0 7.11653-0.180623 10.642282-0.180622 37.677871 0 75.355742 0.057799 113.033613 0 132.887647-0.296221 265.840318-0.657466 398.79299-0.953688 3.525753 0 7.174329-0.122823 10.707306 0.180623 11.364773 0.895888 15.670815 5.440352 16.08986 16.927948 0.245647 4.956284 0.130048 9.919792 0.130048 14.883301z" p-id="57257" fill="#ffffff"></path><path d="M820.156577 577.291451V499.659865c0.057799-6.697485 0.057799-13.994638-9.031129-13.698417-8.25084 0.296221-8.077442 7.174329-8.077442 13.459995 0 51.795332 0.057799 103.583439 0 155.378771-0.057799 6.459064 0.238422 13.156549 8.431462 13.156549 8.135241 0.057799 8.734908-6.459064 8.734908-12.975926-0.115598-25.901278-0.057799-51.795332-0.057799-77.689386zM738.970338 846.484125c-7.10208-0.108374-14.20416-0.021675-21.30624-0.021675H548.305139c-3.193407 0-6.408489-0.180623-9.580222 0.115599-10.728981 0.997037-17.664889 8.272514-17.253069 17.867186 0.39737 9.298451 7.196004 15.995936 17.643214 16.068185 33.725849 0.231197 67.458922 0.086699 101.191996 0.086699v0.036124c33.017808 0 66.042841 0.057799 99.06065-0.0289 13.42387-0.036125 21.140067-6.459064 21.002794-17.094121-0.130048-10.526684-7.969068-16.819575-21.400164-17.029097z" p-id="57258" fill="#ffffff"></path></svg>