<svg t="1723188633649" class="icon" viewBox="0 0 1024 1024" version="1.1" xmlns="http://www.w3.org/2000/svg" p-id="4635" width="200" height="200"><path d="M778.7 748.5c0 15.5-13.8 29.4-29.4 29.4H720c-15.5 0-29.4-13.8-29.4-29.4V467.1c0-15.5 13.8-29.4 29.4-29.4h29.4c15.5 0 29.4 13.8 29.4 29.4v281.4z m-146.7 0c0 15.5-13.8 29.4-29.4 29.4h-29.4c-15.5 0-29.4-13.8-29.4-29.4v-473c0-15.5 13.8-29.4 29.4-29.4h29.4c15.5 0 29.4 13.8 29.4 29.4v473z m-148.5 0c0 15.5-13.8 29.4-29.4 29.4h-29.4c-15.5 0-29.4-13.8-29.4-29.4v-385c0-15.5 13.8-29.4 29.4-29.4h29.4c15.5 0 29.4 13.8 29.4 29.4v385z m-148.5 0c0 15.5-13.8 29.4-29.4 29.4h-29.4c-15.5 0-29.4-13.8-29.4-29.4V586.2c0-15.5 13.8-29.4 29.4-29.4h29.4c15.5 0 29.4 13.8 29.4 29.4v162.3zM839.2 97.6H186.5c-48.3 0-88.1 39.7-88.1 88.1v650.9c0 50.1 39.7 89.8 88.1 89.8h650.9c48.3 0 88.1-39.7 88.1-88.1V185.7c1.7-48.4-38-88.1-86.3-88.1z" p-id="4636" fill="#ffffff"></path></svg>