<?xml version="1.0" standalone="no"?><!DOCTYPE svg PUBLIC "-//W3C//DTD SVG 1.1//EN" "http://www.w3.org/Graphics/SVG/1.1/DTD/svg11.dtd"><svg t="1697858968634" class="icon" viewBox="0 0 1024 1024" version="1.1" xmlns="http://www.w3.org/2000/svg" p-id="4046" xmlns:xlink="http://www.w3.org/1999/xlink" width="200" height="200"><path d="M209.066667 248.888889c11.377778 11.377778 28.444444 11.377778 39.822222 0l31.288889-31.288889v103.822222h-64c-15.644444 0-28.444444 12.8-28.444445 28.444445s12.8 28.444444 28.444445 28.444444h64v267.377778c0 31.288889 25.6 56.888889 56.888889 56.888889h348.444444v103.822222L654.222222 775.111111c-11.377778-11.377778-28.444444-11.377778-39.822222 0-11.377778 11.377778-11.377778 28.444444 0 39.822222l81.066667 81.066667c11.377778 11.377778 28.444444 11.377778 39.822222 0l81.066667-81.066667c11.377778-11.377778 11.377778-28.444444 0-39.822222-11.377778-11.377778-28.444444-11.377778-39.822223 0l-31.288889 31.288889v-103.822222h64c15.644444 0 28.444444-12.8 28.444445-28.444445s-12.8-28.444444-28.444445-28.444444h-469.333333V217.6l31.288889 31.288889c11.377778 11.377778 28.444444 11.377778 39.822222 0 11.377778-11.377778 11.377778-28.444444 0-39.822222L329.955556 128c-11.377778-11.377778-28.444444-11.377778-39.822223 0l-81.066666 81.066667c-11.377778 11.377778-11.377778 28.444444 0 39.822222z" p-id="4047"></path><path d="M686.933333 378.311111v196.266667h56.888889V378.311111c0-31.288889-25.6-56.888889-56.888889-56.888889H408.177778v56.888889h278.755555z" p-id="4048"></path></svg>