<svg t="1719818096090" class="icon" viewBox="0 0 1024 1024" version="1.1" xmlns="http://www.w3.org/2000/svg" p-id="3681" width="200" height="200"><path d="M658.285714 182.857143a109.714286 109.714286 0 1 0 219.428572 0 109.714286 109.714286 0 0 0-219.428572 0zM731.428571 768a109.714286 109.714286 0 1 0 219.428572 0 109.714286 109.714286 0 0 0-219.428572 0zM73.142857 182.857143a109.714286 109.714286 0 1 0 219.428572 0 109.714286 109.714286 0 0 0-219.428572 0zM0 841.142857a109.714286 109.714286 0 1 0 219.428571 0 109.714286 109.714286 0 0 0-219.428571 0z" fill="#1296db" p-id="3682"></path><path d="M174.445714 204.8l56.100572-56.32 169.691428 170.422857-56.100571 56.32-169.691429-170.422857z m399.872 400.822857l48.64-62.756571L877.714286 741.814857l-48.713143 62.756572-254.683429-198.948572zM573.44 316.854857L771.584 146.285714l51.419429 60.489143-198.070858 170.422857-51.565714-60.416zM146.285714 744.667429l198.144-198.948572 56.027429 56.32-198.144 198.948572-56.027429-56.32z" fill="#1296db" p-id="3683"></path><path d="M475.428571 377.929143a97.499429 97.499429 0 1 1 0 194.998857 97.499429 97.499429 0 0 1 0-194.998857M475.428571 292.571429a182.857143 182.857143 0 1 0 0 365.714285 182.857143 182.857143 0 0 0 0-365.714285z" fill="#1296db" p-id="3684"></path></svg>