<svg t="1724308244061" class="icon" viewBox="0 0 1024 1024" version="1.1" xmlns="http://www.w3.org/2000/svg" p-id="4508" width="200" height="200"><path d="M255.061333 625.834667C215.68 677.12 161.749333 714.666667 85.333333 714.666667a32 32 0 0 1 0-64c51.584 0 88.32-23.850667 118.954667-63.786667 31.744-41.386667 54.997333-97.706667 77.824-158.08l8.106667-21.589333c19.370667-51.754667 39.509333-105.557333 65.194666-146.176 14.933333-23.68 33.066667-45.226667 56.234667-59.989334a124.074667 124.074667 0 0 1 83.029333-18.474666c116.992 13.568 167.210667 113.322667 200.021334 206.805333a1908.522667 1908.522667 0 0 1 25.258666 78.677333c6.826667 22.186667 13.354667 43.690667 20.352 64.298667 15.402667 45.354667 31.616 82.773333 52.650667 108.928a32 32 0 1 1-49.92 40.106667c-28.458667-35.456-47.530667-81.962667-63.317333-128.469334a2344.96 2344.96 0 0 1-22.741334-71.893333 1844.906667 1844.906667 0 0 0-22.656-70.4c-32.853333-93.653333-71.722667-155.733333-147.029333-164.48a60.16 60.16 0 0 0-41.301333 8.917333c-12.288 7.808-24.32 20.906667-36.48 40.106667-21.845333 34.645333-39.424 81.493333-59.306667 134.4l-8.234667 21.888c-22.528 59.52-48.64 124.458667-86.912 174.378667z" fill="#1296db" p-id="4509"></path><path d="M312.832 812.074667c-54.613333 18.261333-123.52 30.592-227.498667 30.592a32 32 0 0 1 0-64c98.688 0 160.469333-11.690667 207.189334-27.306667 32.853333-11.008 57.728-23.466667 84.821333-37.12 12.842667-6.485333 26.24-13.226667 41.216-20.138667 92.544-42.922667 211.029333-73.770667 523.562667-39.594666a32 32 0 1 1-6.912 63.616c-306.133333-33.450667-411.648-2.133333-489.770667 34.048-11.349333 5.248-22.912 11.093333-34.901333 17.066666-28.970667 14.549333-60.373333 30.336-97.706667 42.837334zM53.333333 426.666667A32 32 0 0 1 85.333333 394.666667h213.333334a32 32 0 0 1 0 64H85.333333a32 32 0 0 1-32-32zM650.666667 426.666667a32 32 0 0 1 32-32h213.333333a32 32 0 0 1 0 64h-213.333333a32 32 0 0 1-32-32z" fill="#1296db" p-id="4510"></path></svg>